PathFileType	4	(X/Y/Z)	C:/Users/opensim2020/Desktop/walking_exp_matlab/subject01_walking05_straight_01.trc																																																																																																																															
DataRate	CameraRate	NumFrames	NumMarkers	Units	OrigDataRate	OrigDataStartFrame	OrigNumFrames																																																																																																																											
100	100	5	43	mm	100	904	239																																																																																																																											
Frame#	Time	LFHD			RFHD			LBHD			RBHD			C7			T10			CLAV			STRN			RBAK			LSHO			LUPA			LELB			LFRM			LWRA			LWRB			LFIN			RSHO			RUPA			RELB			RFRM			RWRA			RWRB			RFIN			LASI			RASI			LPSI			RPSI			LTHI			LKNE			LTIB			LANK			LHEE			LTOE			RTHI			RKNE			RTIB			RANK			RHEE			RTOE			*39			*40			*41			*42		
		X1	Y1	Z1	X2	Y2	Z2	X3	Y3	Z3	X4	Y4	Z4	X5	Y5	Z5	X6	Y6	Z6	X7	Y7	Z7	X8	Y8	Z8	X9	Y9	Z9	X10	Y10	Z10	X11	Y11	Z11	X12	Y12	Z12	X13	Y13	Z13	X14	Y14	Z14	X15	Y15	Z15	X16	Y16	Z16	X17	Y17	Z17	X18	Y18	Z18	X19	Y19	Z19	X20	Y20	Z20	X21	Y21	Z21	X22	Y22	Z22	X23	Y23	Z23	X24	Y24	Z24	X25	Y25	Z25	X26	Y26	Z26	X27	Y27	Z27	X28	Y28	Z28	X29	Y29	Z29	X30	Y30	Z30	X31	Y31	Z31	X32	Y32	Z32	X33	Y33	Z33	X34	Y34	Z34	X35	Y35	Z35	X36	Y36	Z36	X37	Y37	Z37	X38	Y38	Z38	X39	Y39	Z39	X40	Y40	Z40	X41	Y41	Z41	X42	Y42	Z42	X43	Y43	Z43
																																																																																																																																		
150	1.49	230.38567	1671.33167	-1101.19385	237.85147	1683.77124	-986.93011	127.9786	1599.46497	-1095.35522	132.93465	1610.61084	-974.63629	118.17244	1423.80371	-1040.8938	95.72655	1131.90186	-1012.8252	266.62152	1365.20251	-1038.20081	316.98535	1212.02637	-1034.77466	75.18299	1233.38623	-947.20593	202.73862	1382.13281	-1200.31006	170.42848	1192.80188	-1275.02881	146.36172	1046.24915	-1265.21521	169.90784	934.27216	-1282.76697	228.36998	809.19916	-1254.34802	175.14972	811.78284	-1282.60876	210.38834	733.73419	-1282.53003	204.69745	1397.69226	-887.0423	164.82799	1202.22583	-771.71991	181.55524	1077.81689	-755.40887	239.92683	970.35541	-725.23309	345.19464	878.66412	-749.58472	305.88248	868.8421	-708.25446	363.64499	808.04608	-707.37799	276.5004	932.14471	-1113.65222	267.0741	927.72662	-897.73822	87.69256	940.61847	-1072.3667	83.30406	943.43054	-927.93457	310.82297	610.58551	-1172.02246	331.0777	478.97702	-1152.17126	308.97592	289.58215	-1163.73853	312.76208	70.84405	-1110.66248	269.87985	40.75721	-1058.45959	461.54745	40.39742	-1107.50037	184.03111	595.10809	-835.69153	164.59921	435.84155	-848.30353	20.73981	329.49307	-850.3714	-113.75311	170.26942	-892.98163	-163.02888	174.80246	-951.90045	-53.89634	35.34129	-902.05261	218.28125	1712.54565	-1011.60303	1973.02637	1023.8764	-3102.08813	2012.48218	1022.0282	-3140.66919	NaN	NaN	NaN
151	1.5	240.37022	1672.13586	-1103.51074	247.28551	1684.63806	-989.24347	137.87029	1600.40894	-1098.04858	142.17426	1611.7168	-977.37012	127.62838	1424.69189	-1043.37146	105.02769	1132.9751	-1015.07159	275.93829	1366.22217	-1040.22693	326.37656	1213.08838	-1036.46851	83.98842	1234.62329	-949.1709	212.48	1382.86804	-1202.43872	182.02676	1193.34729	-1277.3219	159.33557	1046.5675	-1267.76355	184.17973	934.88971	-1285.37109	244.12926	810.79962	-1257.17017	190.73956	812.47943	-1285.38135	226.74373	734.79901	-1285.31604	213.69757	1399.04968	-889.33887	172.89406	1203.95911	-773.65527	188.20882	1079.29041	-758.18512	245.13124	971.10217	-727.78107	349.25708	877.88995	-751.73193	309.89932	868.73743	-710.41766	366.63657	806.91669	-709.66376	285.60626	933.27759	-1115.80981	275.33633	928.60107	-900.01294	96.94226	941.67657	-1074.05225	92.52682	944.1629	-929.4458	316.55826	610.5437	-1173.61792	335.93683	478.9809	-1153.7168	310.69556	289.67972	-1164.33923	312.81445	70.91478	-1110.82544	269.85657	40.62099	-1058.50098	461.77014	39.91021	-1107.66528	200.1828	594.54718	-836.05652	183.14722	435.87427	-848.80975	37.31326	332.93402	-851.49731	-100.39427	176.57205	-893.98047	-149.07541	184.52196	-952.56543	-50.00559	37.9294	-903.77942	227.83607	1713.37781	-1014.27771	1973.20532	1023.49854	-3101.8877	2012.52429	1022.07281	-3140.74023	NaN	NaN	NaN
152	1.51	250.23264	1672.9613	-1105.79321	256.65512	1685.65149	-991.86145	147.6086	1601.31934	-1100.78101	151.30739	1612.67737	-980.07764	136.95215	1425.54932	-1045.72668	114.05741	1134.01563	-1017.26892	285.30182	1367.16809	-1042.16235	335.70374	1214.02808	-1038.14795	93.34174	1235.71973	-951.15314	222.20941	1383.526	-1204.56067	193.593	1193.92993	-1279.63635	172.28674	1046.82373	-1270.32898	198.60022	935.60297	-1288.06897	259.64789	811.85321	-1259.52979	206.63496	813.22491	-1288.23413	243.58165	736.00342	-1288.24463	222.84511	1400.24634	-891.57294	181.09172	1205.63245	-775.3833	194.68422	1080.6272	-760.88501	250.14427	971.69861	-730.25452	353.39737	876.87341	-753.92773	313.81281	868.52728	-712.50696	369.60464	805.62848	-712.03241	294.52695	934.17352	-1117.89001	284.01346	929.64691	-901.86298	105.94286	942.63617	-1075.66406	101.32047	944.72394	-931.01666	321.83688	610.48682	-1175.15222	340.31671	478.87851	-1155.2644	311.89841	289.65286	-1165.0199	312.7066	70.83814	-1111.04248	269.70615	40.64443	-1058.65271	461.93378	39.69149	-1107.97791	216.0071	594.03345	-836.79498	202.06458	435.69724	-849.6604	54.48771	336.17938	-852.08588	-86.35325	182.97028	-895.19305	-135.2206	193.92628	-952.97931	-42.42107	42.76959	-905.2049	237.31432	1714.24036	-1016.50128	1973.1637	1023.32751	-3101.85327	2012.47681	1021.93292	-3140.67993	NaN	NaN	NaN
153	1.52	260.06607	1673.65442	-1107.79858	265.82822	1686.45435	-993.96716	157.2422	1602.32471	-1103.5249	160.42509	1613.6272	-982.66058	146.0918	1426.45313	-1047.94238	123.01328	1134.93542	-1019.40424	294.53412	1368.03577	-1043.948	344.84521	1214.87561	-1039.66565	102.56841	1236.72595	-953.19666	231.99216	1384.22852	-1206.30457	205.16434	1194.55652	-1281.88672	185.2863	1047.16382	-1273.00427	213.11795	936.28699	-1290.78503	275.6954	813.33289	-1262.17639	222.76898	814.03998	-1291.11267	260.82458	737.34283	-1291.14636	231.88426	1401.36255	-893.52356	189.36809	1207.21912	-776.94275	201.10701	1081.81897	-763.52399	255.24474	972.27875	-732.64539	357.29813	875.91089	-756.15936	317.55493	868.17682	-714.68732	372.26437	804.05005	-714.67529	303.36832	934.84015	-1120.08936	292.57581	930.72626	-903.64886	114.75459	943.52991	-1077.35242	109.88276	944.98193	-932.5976	327.08823	610.68555	-1176.63208	344.30621	478.58038	-1156.83057	312.97406	289.53714	-1165.74976	312.63354	70.81801	-1111.21387	269.67151	40.71019	-1058.67212	462.26367	39.53291	-1108.3158	231.79979	593.59357	-837.78467	221.27985	435.54666	-850.99115	72.5442	338.92929	-852.25787	-71.73955	189.61127	-897.03229	-120.97311	202.63611	-954.04871	-33.62962	48.00364	-907.22992	246.6736	1715.04211	-1018.73859	1973.1178	1023.4054	-3101.94604	2012.51477	1022.04602	-3140.65112	NaN	NaN	NaN
154	1.53	269.74411	1674.49219	-1109.94995	275.10995	1687.45642	-995.79022	167.02451	1603.02393	-1105.79956	169.5979	1614.62109	-985.02197	155.34517	1427.35376	-1049.89636	131.86757	1135.88452	-1021.42676	303.80283	1368.89185	-1045.5885	353.89114	1215.65686	-1041.10132	111.63523	1237.71899	-955.31281	241.67473	1384.95728	-1208.04724	216.67979	1195.18835	-1284.05017	198.26274	1047.47974	-1275.60193	227.71458	936.94733	-1293.48633	291.77115	814.60767	-1264.63684	239.19559	814.94135	-1294.10583	278.36331	738.89063	-1294.1626	240.94925	1402.39478	-895.32257	197.59727	1208.74561	-778.32788	207.57236	1082.90222	-766.01782	259.9845	972.44366	-735.01263	361.11499	874.995	-758.45782	320.99854	867.58917	-716.96112	374.91177	802.48871	-717.21661	311.84875	935.4704	-1121.58618	300.71521	931.53058	-905.3653	123.33705	944.31567	-1078.98132	118.30797	945.01416	-934.4361	331.92017	610.36713	-1178.24036	347.84711	478.21249	-1158.4032	314.20648	289.41196	-1166.56433	312.43396	70.77589	-1111.45642	269.61749	40.73431	-1058.68567	462.15833	39.18765	-1108.54529	247.21327	593.56573	-839.24084	240.21991	435.591	-852.2868	90.98695	340.95432	-852.60706	-56.40395	196.36919	-899.13647	-105.66915	209.8454	-956.5022	-20.93101	53.59665	-907.07062	255.98466	1715.99451	-1020.91791	1973.05432	1023.20001	-3101.8689	2012.55359	1022.08075	-3140.62622	NaN	NaN	NaN
